<?xml version="1.0" standalone="no"?>
<!DOCTYPE svg PUBLIC "-//W3C//DTD SVG 20010904//EN"
 "http://www.w3.org/TR/2001/REC-SVG-20010904/DTD/svg10.dtd">
<svg version="1.0" xmlns="http://www.w3.org/2000/svg"
 width="900.000000pt" height="900.000000pt" viewBox="0 0 900.000000 900.000000"
 preserveAspectRatio="xMidYMid meet">
<metadata>
Created by potrace 1.11, written by Peter Selinger 2001-2013
</metadata>
<g transform="translate(0.000000,900.000000) scale(0.100000,-0.100000)"
fill="#000000" stroke="none">
<path d="M3900 7984 c-25 -2 -108 -8 -185 -14 -833 -65 -1784 -314 -2646 -695
-206 -91 -609 -294 -615 -309 -3 -9 528 -1477 586 -1621 l13 -30 13 50 c16 58
49 255 99 585 19 129 49 299 67 378 l31 143 66 61 c270 248 688 480 1141 633
123 42 382 117 387 112 1 -2 -11 -44 -27 -93 -178 -524 -281 -1109 -298 -1688
-20 -663 53 -1239 231 -1826 l14 -45 163 -27 c287 -48 828 -97 1073 -98 112
-1 108 -5 -103 -78 -296 -103 -632 -190 -912 -237 -21 -3 -38 -11 -38 -18 1
-20 121 -244 190 -355 226 -361 508 -635 812 -788 109 -55 290 -111 418 -130
144 -21 327 -14 448 15 415 103 807 453 1076 962 408 770 546 1867 397 3144
-51 437 -133 913 -219 1268 l-19 77 26 0 c90 0 488 -83 706 -146 469 -137 956
-372 1440 -694 55 -36 107 -70 114 -75 17 -10 26 -23 -212 310 -99 137 -182
256 -185 263 -4 12 7 14 69 9 41 -4 187 -9 324 -13 138 -3 258 -8 268 -10 9
-3 17 -1 17 3 0 19 -510 213 -885 336 -964 318 -1867 512 -2890 623 -131 15
-837 28 -955 18z m1688 -1339 c150 -68 237 -238 202 -394 -17 -77 -44 -126
-98 -180 -242 -239 -647 -35 -601 303 31 232 282 369 497 271z"/>
<path d="M6570 1584 c-418 -89 -912 -153 -1505 -196 -280 -20 -1307 -17 -1655
5 -362 23 -718 52 -1019 82 -135 14 -252 25 -260 24 -28 -1 249 -78 469 -130
571 -135 1050 -206 1557 -231 634 -31 1304 64 2048 292 216 67 525 179 490
178 -5 0 -62 -11 -125 -24z"/>
</g>
</svg>
